<svg xmlns="http://www.w3.org/2000/svg" viewBox="0 0 200 220" fill="currentColor">
  <!-- Heraldic Raven Queen Crest - Placeholder -->
  <!-- Body -->
  <path d="M100 30 C85 30 65 45 60 65 C55 85 58 100 65 115 L55 140 C50 150 52 155 58 155 L70 145 C75 155 85 165 100 170 C115 165 125 155 130 145 L142 155 C148 155 150 150 145 140 L135 115 C142 100 145 85 140 65 C135 45 115 30 100 30Z"/>
  <!-- Head -->
  <path d="M100 20 C90 15 80 18 75 28 C70 38 75 48 85 50 C90 52 95 50 100 47 C105 50 110 52 115 50 C125 48 130 38 125 28 C120 18 110 15 100 20Z"/>
  <!-- Beak -->
  <path d="M75 32 L55 28 L58 35 L72 36Z"/>
  <!-- Eye -->
  <circle cx="88" cy="32" r="3" fill="white"/>
  <circle cx="88" cy="32" r="1.5"/>
  <!-- Left Wing spread -->
  <path d="M60 65 C45 55 25 50 10 55 C20 60 30 70 35 80 C40 90 45 95 55 100 C50 85 52 75 60 65Z"/>
  <path d="M10 55 C5 48 2 40 5 32 C10 40 18 48 25 52Z"/>
  <!-- Right Wing spread -->
  <path d="M140 65 C155 55 175 50 190 55 C180 60 170 70 165 80 C160 90 155 95 145 100 C150 85 148 75 140 65Z"/>
  <path d="M190 55 C195 48 198 40 195 32 C190 40 182 48 175 52Z"/>
  <!-- Tail feathers -->
  <path d="M85 170 L75 195 L85 190 L90 200 L100 185 L110 200 L115 190 L125 195 L115 170Z"/>
  <!-- Crown (Raven Queen) -->
  <path d="M78 15 L82 5 L90 12 L100 0 L110 12 L118 5 L122 15 C115 13 108 14 100 14 C92 14 85 13 78 15Z" opacity="0.9"/>
  <!-- Shield outline -->
  <path d="M100 210 C60 195 40 170 40 140 L40 75 L100 60 L160 75 L160 140 C160 170 140 195 100 210Z" fill="none" stroke="currentColor" stroke-width="3" opacity="0.3"/>
</svg>
